<svg xmlns="http://www.w3.org/2000/svg" width="256" height="256" viewBox="0 0 100 100"><rect width="100" height="100" rx="20" fill="#2f0739"></rect><path d="M12.48 74.50L12.48 25.50L18.36 25.50L18.36 47.20L25.92 47.20L36.49 30.19Q37.47 28.51 39.01 27.46L39.01 27.46L40.34 26.55Q41.46 25.78 41.91 25.64Q42.37 25.50 43.63 25.50L43.63 25.50L45.17 25.50L45.17 28.23Q45.17 29.84 44.96 30.26Q44.75 30.68 43.49 31.38L43.49 31.38L42.72 31.80Q41.60 32.43 41.25 32.78Q40.90 33.13 40.13 34.32L40.13 34.32L31.73 47.90Q30.68 49.65 29.98 49.65L29.98 49.65L29.98 49.93Q30.68 49.93 31.73 51.61L31.73 51.61L40.62 65.68Q41.32 66.87 41.70 67.22Q42.09 67.57 43.21 68.20L43.21 68.20L43.98 68.62Q45.24 69.32 45.45 69.74Q45.66 70.16 45.66 71.77L45.66 71.77L45.66 74.50L43.70 74.50Q42.44 74.50 41.98 74.36Q41.53 74.22 40.41 73.45L40.41 73.45L39.08 72.54Q38.03 71.77 37.68 71.39Q37.33 71 36.56 69.74L36.56 69.74L25.64 52.10L18.36 52.10L18.36 74.50L12.48 74.50ZM78.21 52.10L78.21 52.10L61.48 52.10Q59.80 52.10 58.12 50.70L58.12 50.70L56.23 49.09Q54.76 47.90 54.76 46.29L54.76 46.29L54.76 31.80Q54.76 29.70 56.44 28.30L56.44 28.30L58.12 26.90Q59.80 25.50 61.48 25.50L61.48 25.50L80.10 25.50Q81.78 25.50 83.46 26.90L83.46 26.90L85.14 28.30Q86.82 29.70 86.82 31.80L86.82 31.80L86.82 34.60L80.94 34.60L80.94 33.27Q80.94 32.22 80.84 31.90Q80.73 31.59 80.10 31.10Q79.47 30.61 79.12 30.50Q78.77 30.40 77.51 30.40L77.51 30.40L64.07 30.40Q62.81 30.40 62.46 30.50Q62.11 30.61 61.48 31.10Q60.85 31.59 60.75 31.90Q60.64 32.22 60.64 33.27L60.64 33.27L60.64 44.33Q60.64 45.38 60.75 45.69Q60.85 46.01 61.48 46.50Q62.11 46.99 62.46 47.09Q62.81 47.20 64.07 47.20L64.07 47.20L80.80 47.20Q82.48 47.20 84.16 48.60L84.16 48.60L85.84 50Q87.52 51.40 87.52 53.50L87.52 53.50L87.52 68.20Q87.52 70.30 85.84 71.70L85.84 71.70L84.16 73.10Q82.48 74.50 80.80 74.50L80.80 74.50L60.78 74.50Q59.10 74.50 57.42 73.10L57.42 73.10L55.74 71.70Q54.06 70.30 54.06 68.20L54.06 68.20L54.06 65.40L59.94 65.40L59.94 66.73Q59.94 67.78 60.05 68.09Q60.15 68.41 60.78 68.90Q61.41 69.39 61.76 69.50Q62.11 69.60 63.37 69.60L63.37 69.60L78.21 69.60Q79.47 69.60 79.82 69.50Q80.17 69.39 80.80 68.90Q81.43 68.41 81.53 68.09Q81.64 67.78 81.64 66.73L81.64 66.73L81.64 54.97Q81.64 53.92 81.53 53.60Q81.43 53.29 80.80 52.80Q80.17 52.31 79.82 52.20Q79.47 52.10 78.21 52.10Z" fill="#fff"></path></svg>